<svg xmlns="http://www.w3.org/2000/svg" viewBox="0 0 800 500">
  <defs>
    <linearGradient id="sky" x1="0" y1="0" x2="0" y2="1">
      <stop offset="0%" stop-color="#b8d4e8"/>
      <stop offset="100%" stop-color="#d9eef7"/>
    </linearGradient>
    <linearGradient id="meadow" x1="0" y1="0" x2="0" y2="1">
      <stop offset="0%" stop-color="#5a9e6f"/>
      <stop offset="100%" stop-color="#3d7a52"/>
    </linearGradient>
  </defs>
  <!-- Ciel -->
  <rect width="800" height="500" fill="url(#sky)"/>
  <!-- Soleil -->
  <circle cx="660" cy="90" r="52" fill="#f9d56e" opacity="0.85"/>
  <!-- Montagnes arrière-plan -->
  <polygon points="0,320 140,120 280,320" fill="#8fb5a0" opacity="0.6"/>
  <polygon points="220,320 400,80 580,320" fill="#6d9e83" opacity="0.7"/>
  <polygon points="500,320 680,100 800,300 800,320" fill="#5a8c70" opacity="0.65"/>
  <!-- Prairies -->
  <rect x="0" y="320" width="800" height="180" fill="url(#meadow)"/>
  <!-- Quelques herbes -->
  <ellipse cx="100" cy="322" rx="120" ry="18" fill="#4d9066" opacity="0.5"/>
  <ellipse cx="680" cy="326" rx="140" ry="16" fill="#4d9066" opacity="0.5"/>
  <!-- Chalet - corps -->
  <rect x="280" y="240" width="240" height="140" rx="4" fill="#c8997a"/>
  <!-- Chalet - toit -->
  <polygon points="260,240 540,240 400,130" fill="#7a4f2d"/>
  <!-- Chalet - cheminée -->
  <rect x="450" y="140" width="30" height="50" fill="#8b5e3c"/>
  <rect x="444" y="135" width="42" height="10" rx="3" fill="#6b4226"/>
  <!-- Fumée -->
  <ellipse cx="465" cy="120" rx="8" ry="14" fill="#e0e0e0" opacity="0.5"/>
  <ellipse cx="470" cy="100" rx="6" ry="10" fill="#e0e0e0" opacity="0.35"/>
  <!-- Fenêtres -->
  <rect x="310" y="280" width="50" height="50" rx="4" fill="#a8d4e8" opacity="0.85"/>
  <line x1="335" y1="280" x2="335" y2="330" stroke="#fff" stroke-width="2"/>
  <line x1="310" y1="305" x2="360" y2="305" stroke="#fff" stroke-width="2"/>
  <rect x="440" y="280" width="50" height="50" rx="4" fill="#a8d4e8" opacity="0.85"/>
  <line x1="465" y1="280" x2="465" y2="330" stroke="#fff" stroke-width="2"/>
  <line x1="440" y1="305" x2="490" y2="305" stroke="#fff" stroke-width="2"/>
  <!-- Porte -->
  <rect x="372" y="310" width="56" height="70" rx="6" fill="#6b4226"/>
  <circle cx="420" cy="347" r="4" fill="#d4a843"/>
  <!-- Arbres -->
  <rect x="175" y="270" width="18" height="80" rx="3" fill="#7a5c3a"/>
  <polygon points="118,272 184,272 151,160" fill="#2e5a3e"/>
  <polygon points="128,230 174,230 151,155" fill="#3d7a52"/>
  <rect x="585" y="265" width="18" height="85" rx="3" fill="#7a5c3a"/>
  <polygon points="528,267 604,267 566,155" fill="#2e5a3e"/>
  <polygon points="538,225 594,225 566,150" fill="#3d7a52"/>
  <!-- Alpaga -->
  <ellipse cx="620" cy="355" rx="38" ry="24" fill="#f5f0e8"/>
  <rect x="600" y="370" width="10" height="30" rx="4" fill="#e8ddd0"/>
  <rect x="618" y="370" width="10" height="32" rx="4" fill="#e8ddd0"/>
  <rect x="632" y="370" width="10" height="30" rx="4" fill="#e8ddd0"/>
  <rect x="648" y="370" width="10" height="28" rx="4" fill="#e8ddd0"/>
  <ellipse cx="654" cy="348" rx="18" ry="14" fill="#f5f0e8"/>
  <ellipse cx="663" cy="337" rx="9" ry="12" fill="#f5f0e8"/>
  <!-- Oreilles alpaga -->
  <ellipse cx="657" cy="327" rx="4" ry="7" fill="#f5f0e8" transform="rotate(-15,657,327)"/>
  <ellipse cx="671" cy="326" rx="4" ry="7" fill="#f5f0e8" transform="rotate(15,671,326)"/>
  <!-- Oeil alpaga -->
  <circle cx="668" cy="335" r="2.5" fill="#3a2a1a"/>
  <!-- Muselière alpaga -->
  <ellipse cx="670" cy="344" rx="5" ry="4" fill="#e8c8b0"/>
  <!-- Nuages -->
  <ellipse cx="160" cy="65" rx="60" ry="22" fill="#fff" opacity="0.75"/>
  <ellipse cx="120" cy="70" rx="40" ry="18" fill="#fff" opacity="0.75"/>
  <ellipse cx="200" cy="70" rx="40" ry="18" fill="#fff" opacity="0.75"/>
  <ellipse cx="490" cy="50" rx="50" ry="18" fill="#fff" opacity="0.65"/>
  <ellipse cx="455" cy="55" rx="32" ry="15" fill="#fff" opacity="0.65"/>
  <ellipse cx="525" cy="55" rx="32" ry="15" fill="#fff" opacity="0.65"/>
</svg>
